Coordinates
version=1
nRows=16
nColumns=36
inDegrees=yes

Units are S.I. units (second, meters, Newtons, ...)
If the header above contains a line with 'inDegrees', this indicates whether rotational values are in degrees (yes) or radians (no).

endheader
time	pelvis_tilt	pelvis_list	pelvis_rotation	pelvis_tx	pelvis_ty	pelvis_tz	hip_flexion_r	hip_adduction_r	hip_rotation_r	knee_angle_r	knee_angle_r_beta	ankle_angle_r	subtalar_angle_r	mtp_angle_r	hip_flexion_l	hip_adduction_l	hip_rotation_l	knee_angle_l	knee_angle_l_beta	ankle_angle_l	subtalar_angle_l	mtp_angle_l	lumbar_extension	lumbar_bending	lumbar_rotation	arm_flex_r	arm_add_r	arm_rot_r	elbow_flex_r	pro_sup_r	arm_flex_l	arm_add_l	arm_rot_l	elbow_flex_l	pro_sup_l
      0.84000000	      0.26976578	     -3.71261025	      4.09351515	     -2.39441035	      1.09546321	      0.23628670	     22.54730240	      4.79820037	     -7.12089406	      7.98573193	      0.13937732	    -11.43501026	      3.28663536	    -20.14428429	    -25.38472183	     -2.56503430	     -1.33391225	     33.46931167	      0.58414969	    -21.05581449	    -14.74615206	     -0.24854293	    -12.33035979	      3.91548355	    -12.05314277	    -57.78959986	    -19.77805586	    -11.76501276	     92.01833204	     90.00021046	    -18.46721523	    -13.89096832	     -3.49161928	    135.18967280	     90.00021046
      0.84400000	      0.39785631	     -3.53797680	      3.99519718	     -2.37989940	      1.09423204	      0.23648756	     22.05489712	      4.71641282	     -7.05417084	      7.21394477	      0.12590709	    -11.31118136	      3.60774192	    -20.04698836	    -24.95876256	     -2.32042423	     -0.93958589	     35.55538594	      0.62055855	    -20.91593897	    -15.78601064	      0.15545747	    -12.52217692	      3.74415813	    -11.73978510	    -57.51086744	    -19.86091268	    -11.80971261	     92.02717138	     90.00021046	    -18.81547092	    -13.89395758	     -3.35022376	    134.35664007	     90.00021046
      0.84800000	      0.55042054	     -3.47335277	      3.91097812	     -2.36549932	      1.09291330	      0.23672057	     21.59715778	      4.75087489	     -7.00694271	      6.64553766	      0.11598651	    -11.34681760	      3.62387776	    -20.26734448	    -24.46132314	     -2.21026052	     -0.68081971	     37.81617155	      0.66001670	    -20.46515710	    -16.62490512	      1.56060562	    -12.73379402	      3.69112428	    -11.41075682	    -57.18061185	    -19.97002954	    -11.83031348	     92.03915099	     90.00021046	    -19.15066539	    -13.86964384	     -3.18251833	    133.42729331	     90.00021046
      0.85200000	      0.75162523	     -3.45534270	      3.93171041	     -2.35121784	      1.09154942	      0.23671519	     21.11550323	      4.79935624	     -7.02982535	      6.23240618	      0.10877601	    -11.31632255	      3.50526184	    -20.00836372	    -23.95397807	     -2.16099270	     -0.31205542	     40.10531591	      0.69996981	    -20.26021384	    -17.52338810	      2.09116169	    -12.98795509	      3.71680220	    -11.14853665	    -56.80290252	    -20.10378409	    -11.84655921	     92.03483143	     90.00021046	    -19.43233355	    -13.76836059	     -3.11388682	    132.38357008	     90.00021046
      0.85600000	      0.93940596	     -3.49317843	      4.00986922	     -2.33698653	      1.08996957	      0.23685092	     20.72107156	      4.89773673	     -7.20378681	      6.07179690	      0.10597285	    -11.21929931	      3.26907358	    -19.93419339	    -23.31479979	     -2.22268256	      0.03787255	     42.59526410	      0.74342760	    -20.07166655	    -18.23363576	      2.37474076	    -13.27435820	      3.79677245	    -10.95700545	    -56.34633143	    -20.25195267	    -11.79999096	     92.00926554	     90.00021046	    -19.72636038	    -13.69545085	     -3.25094759	    131.34835683	     90.00021046
      0.86000000	      1.20342481	     -3.60326327	      4.03328146	     -2.32274817	      1.08838311	      0.23681249	     20.27983593	      5.06593363	     -7.47761070	      6.06776021	      0.10590239	    -11.28998010	      3.02213282	    -20.01007891	    -22.78797017	     -2.29944219	      0.33813864	     44.99020757	      0.78522725	    -19.90776422	    -18.93818154	      3.59898317	    -13.61275122	      3.98292051	    -10.64874842	    -55.90334144	    -20.42711691	    -11.82182642	     92.02159125	     90.00021046	    -20.10142456	    -13.65009206	     -2.84385316	    130.27830179	     90.00021046
      0.86400000	      1.51022421	     -3.74827434	      3.99631641	     -2.30843058	      1.08662597	      0.23670977	     19.83351585	      5.28513712	     -7.79719598	      6.24689829	      0.10902894	    -11.19391337	      2.82524306	    -20.00478032	    -22.26876630	     -2.43050784	      0.41415131	     47.44576165	      0.82808476	    -19.78603201	    -19.43619407	      3.74718427	    -13.99521525	      4.21525601	    -10.24063243	    -55.49911122	    -20.64540912	    -11.87934448	     92.07433136	     90.00021046	    -20.37170691	    -13.51711654	     -2.77556697	    129.09668048	     90.00021046
      0.86800000	      1.60508908	     -3.77868469	      3.86430505	     -2.29441004	      1.08451590	      0.23657961	     19.73679260	      5.34478467	     -8.13572351	      6.84987997	      0.11955296	    -10.99598396	      2.46530728	    -20.06953564	    -21.77218830	     -2.04781905	      1.24912034	     49.49227456	      0.86380315	    -19.64193592	    -20.30671421	      4.12126141	    -14.19329578	      4.31436076	     -9.78594987	    -54.98813800	    -20.89120445	    -11.90061244	     92.06893092	     90.00021046	    -20.41860985	    -13.36441856	     -2.94801365	    127.70702453	     90.00021046
      0.87200000	      2.05709324	     -3.98176504	      3.69391190	     -2.27992727	      1.08264199	      0.23649130	     19.18422303	      5.62951680	     -8.43210974	      7.36706064	      0.12857946	    -10.86343380	      2.38153083	    -20.26868539	    -21.26363010	     -2.35347826	      0.75578451	     52.11215354	      0.90952866	    -19.70267170	    -20.44331711	      5.35765370	    -14.72019029	      4.60840295	     -9.21594753	    -54.57341548	    -21.21830451	    -11.93752581	     92.18788389	     90.00021046	    -20.73063386	    -13.16944281	     -2.71350270	    126.46827084	     90.00021046
      0.87600000	      2.28357054	     -4.16006058	      3.69268266	     -2.26587974	      1.08037024	      0.23618694	     18.92557523	      5.81101799	     -8.85093491	      8.05991648	      0.14067208	    -10.69302896	      2.22195267	    -20.25879855	    -20.60339759	     -2.40943996	      1.05379694	     54.55264867	      0.95212333	    -19.71564505	    -20.90903160	      5.57318039	    -15.04864286	      4.88520361	     -8.83975426	    -54.01006303	    -21.52726657	    -11.94513500	     92.19306199	     90.00021046	    -20.99505202	    -13.01326152	     -2.60345769	    125.11791157	     90.00021046
      0.88000000	      2.40321325	     -4.28000348	      3.75273408	     -2.25228073	      1.07784227	      0.23568286	     18.86019316	      5.86348795	     -9.23093878	      8.96298394	      0.15643358	    -10.56158539	      2.18619559	    -20.18711445	    -19.89853240	     -2.20312645	      1.82850823	     56.87597366	      0.99267301	    -19.29383102	    -21.47391044	      6.77273414	    -15.30253610	      5.12697936	     -8.52670767	    -53.37565621	    -21.87071661	    -11.91032809	     92.20464116	     90.00021046	    -21.22798157	    -12.82964738	     -2.42700703	    123.74123394	     90.00021046
      0.88400000	      2.63851351	     -4.44906444	      3.75839058	     -2.23867196	      1.07531219	      0.23535455	     18.64847715	      6.00566169	     -9.50533668	      9.88350962	      0.17249978	    -10.52913695	      2.12058250	    -20.17483838	    -19.14920548	     -2.25587989	      2.07246058	     59.40247731	      1.03676881	    -19.09687187	    -21.63656449	      6.74729996	    -15.69860324	      5.40658759	     -8.13049674	    -52.72287461	    -22.22130832	    -11.86458655	     92.24444609	     90.00021046	    -21.33796886	    -12.60977892	     -2.55800476	    122.32391163	     90.00021046
      0.88800000	      2.97541317	     -4.72105474	      3.45141729	     -2.22397821	      1.07269042	      0.23534680	     18.23321356	      6.36383872	     -9.40663569	     10.82815874	      0.18898702	    -10.39551608	      2.17028347	    -20.38010899	    -18.50114819	     -2.62880364	      1.37108444	     61.90237718	      1.08040030	    -19.19272875	    -21.62345533	      7.11669756	    -16.09144239	      5.73726249	     -7.41958315	    -52.21255506	    -22.67141906	    -11.86380754	     92.31438010	     90.00021046	    -21.69688492	    -12.29098638	     -2.50429414	    120.86331609	     90.00021046
      0.89200000	      3.13739389	     -4.83437279	      3.38612600	     -2.21052779	      1.06969146	      0.23509111	     18.18242295	      6.44414437	     -9.39187008	     12.07245774	      0.21070414	    -10.30417235	      2.18130454	    -20.38511272	    -17.61039591	     -2.57766764	      1.60933258	     64.43327354	      1.12457277	    -18.99673695	    -21.74091057	      7.29254848	    -16.43441190	      5.93456218	     -6.99038624	    -51.49293899	    -23.10123599	    -11.76848644	     92.38796348	     90.00021046	    -21.90294848	    -12.15302087	     -2.41301821	    119.41197025	     90.00021046
      0.89600000	      3.35775042	     -4.99312412	      3.30600120	     -2.19710347	      1.06660243	      0.23500516	     18.09281033	      6.58074478	     -9.21958315	     13.39455505	      0.23377909	    -10.24628645	      2.18788708	    -20.46416329	    -16.78596743	     -2.65983953	      1.67437693	     66.93634682	      1.16825964	    -18.57183376	    -21.71142299	      7.18888986	    -16.85494803	      6.15893638	     -6.52224908	    -50.72940336	    -23.52839959	    -11.67853498	     92.45295551	     90.00021046	    -22.06272873	    -12.00238349	     -2.47033004	    117.96437151	     90.00021046
      0.90000000	      3.47681468	     -5.22023654	      3.19529762	     -2.18351105	      1.06321113	      0.23543541	     18.07585556	      6.90599626	     -8.66682477	     14.70723676	      0.25668971	    -10.19294336	      1.38855304	    -20.10586575	    -15.85250405	     -2.87107008	      1.66688058	     69.41965297	      1.21160151	    -18.13259327	    -21.54427849	      7.20731804	    -17.13500931	      6.40235043	     -6.09599007	    -49.87581053	    -23.96045037	    -11.52554031	     92.52675853	     90.00021046	    -22.25079947	    -11.97602115	     -2.58821166	    116.50450055	     90.00021046
